<?xml version="1.0" encoding="UTF-8"?>
<svg version="1.1" xmlns="http://www.w3.org/2000/svg" width="60" height="64">
<path d="M0 0 C19.8 0 39.6 0 60 0 C60 21.12 60 42.24 60 64 C40.2 64 20.4 64 0 64 C0 42.88 0 21.76 0 0 Z " fill="#2D292A" transform="translate(0,0)"/>
<path d="M0 0 C9.57 0 19.14 0 29 0 C29 21.12 29 42.24 29 64 C23.39 64 17.78 64 12 64 C11.01 61.03 10.02 58.06 9 55 C13.455 54.505 13.455 54.505 18 54 C18.33 52.68 18.66 51.36 19 50 C18.01 50 17.02 50 16 50 C15.01 47.36 14.02 44.72 13 42 C17.75 42.875 17.75 42.875 20 44 C20 42.68 20 41.36 20 40 C13.4 40 6.8 40 0 40 C0 26.8 0 13.6 0 0 Z " fill="#2E2B2B" transform="translate(31,0)"/>
<path d="M0 0 C3.3 0 6.6 0 10 0 C10 13.2 10 26.4 10 40 C16.6 40 23.2 40 30 40 C30 41.32 30 42.64 30 44 C28.02 43.67 26.04 43.34 24 43 C24.66 43.99 25.32 44.98 26 46 C26 47.32 26 48.64 26 50 C26.99 50 27.98 50 29 50 C28.67 51.65 28.34 53.3 28 55 C25.03 55 22.06 55 19 55 C19.495 55.928125 19.99 56.85625 20.5 57.8125 C22 61 22 61 22 64 C14.74 64 7.48 64 0 64 C0 62.35 0 60.7 0 59 C2.97 58.505 2.97 58.505 6 58 C6 53.71 6 49.42 6 45 C5.071875 46.4540625 5.071875 46.4540625 4.125 47.9375 C2 51 2 51 0 52 C0 48.37 0 44.74 0 41 C2.475 40.505 2.475 40.505 5 40 C5 37.36 5 34.72 5 32 C2.525 32.495 2.525 32.495 0 33 C0 30.03 0 27.06 0 24 C1.98 24 3.96 24 6 24 C6 21.03 6 18.06 6 15 C4.02 15 2.04 15 0 15 C0 10.05 0 5.1 0 0 Z " fill="#EEECED" transform="translate(21,0)"/>
<path d="M0 0 C3.96 0 7.92 0 12 0 C12 4.95 12 9.9 12 15 C11.67 15 11.34 15 11 15 C11 12.69 11 10.38 11 8 C8.36 7.67 5.72 7.34 3 7 C3.020625 8.19625 3.04125 9.3925 3.0625 10.625 C3.07286606 17.10378599 2.5141535 23.54553733 2 30 C3.98 30.66 5.96 31.32 8 32 C8.66 29.36 9.32 26.72 10 24 C10.66 24 11.32 24 12 24 C12 27.96 12 31.92 12 36 C7.69214025 37.35148541 4.58042408 38 0 38 C0 25.46 0 12.92 0 0 Z " fill="#F5F4F4" transform="translate(0,0)"/>
<path d="M0 0 C2.35953094 2.35953094 2.49141413 3.77895617 3 7 C5.97 6.34 8.94 5.68 12 5 C12 11.27 12 17.54 12 24 C8.04 24 4.08 24 0 24 C0 16.08 0 8.16 0 0 Z " fill="#F9F9F9" transform="translate(0,40)"/>
<path d="M0 0 C0.33 0 0.66 0 1 0 C1.33 2.64 1.66 5.28 2 8 C3.65 8 5.3 8 7 8 C7.99 5.36 8.98 2.72 10 0 C10.33 0 10.66 0 11 0 C11 1.98 11 3.96 11 6 C12.98 5.67 14.96 5.34 17 5 C17 3.68 17 2.36 17 1 C17.66 1 18.32 1 19 1 C19 1.66 19 2.32 19 3 C19.99 3 20.98 3 22 3 C21.67 4.65 21.34 6.3 21 8 C18.03 8 15.06 8 12 8 C12.495 8.928125 12.99 9.85625 13.5 10.8125 C15 14 15 14 15 17 C7.74 17 0.48 17 -7 17 C-7 15.35 -7 13.7 -7 12 C-5.02 11.67 -3.04 11.34 -1 11 C-0.67 7.37 -0.34 3.74 0 0 Z " fill="#F5F1F1" transform="translate(28,47)"/>
<path d="M0 0 C6.6 0 13.2 0 20 0 C20 1.32 20 2.64 20 4 C17.03 3.505 17.03 3.505 14 3 C14.66 4.65 15.32 6.3 16 8 C15.34 8 14.68 8 14 8 C14 9.32 14 10.64 14 12 C12.02 12.33 10.04 12.66 8 13 C7.34 9.37 6.68 5.74 6 2 C3.03 1.505 3.03 1.505 0 1 C0 0.67 0 0.34 0 0 Z " fill="#D6CBCC" transform="translate(31,40)"/>
<path d="M0 0 C2.64 0 5.28 0 8 0 C8 8.25 8 16.5 8 25 C5.36 25 2.72 25 0 25 C0 23.68 0 22.36 0 21 C2.31 21 4.62 21 7 21 C7 18.69 7 16.38 7 14 C4.69 14 2.38 14 0 14 C0 12.68 0 11.36 0 10 C2.31 10 4.62 10 7 10 C7 8.02 7 6.04 7 4 C4.69 4 2.38 4 0 4 C0 2.68 0 1.36 0 0 Z " fill="#E0DFE0" transform="translate(52,8)"/>
<path d="M0 0 C0.66 0.33 1.32 0.66 2 1 C2.08114106 2.77007714 2.13925505 4.54122098 2.1875 6.3125 C2.22230469 7.29863281 2.25710937 8.28476562 2.29296875 9.30078125 C2 12 2 12 0.73828125 13.85546875 C-1 15 -1 15 -5 15 C-5.37138264 8.43890675 -5.37138264 8.43890675 -3.625 6.375 C-3.08875 5.92125 -2.5525 5.4675 -2 5 C-0.80972016 2.40084462 -0.80972016 2.40084462 0 0 Z " fill="#700E13" transform="translate(26,44)"/>
<path d="M0 0 C5.23529412 2.61764706 5.23529412 2.61764706 7 5 C7.3125 7.5625 7.3125 7.5625 7 10 C6.34 10.66 5.68 11.32 5 12 C3.68 11.67 2.36 11.34 1 11 C0.67 7.37 0.34 3.74 0 0 Z " fill="#741317" transform="translate(30,44)"/>
<path d="M0 0 C2.91517292 1.07401108 4.77810176 1.77810176 7 4 C7.125 6.625 7.125 6.625 7 9 C5.35 9.33 3.7 9.66 2 10 C1.34 6.7 0.68 3.4 0 0 Z " fill="#720F13" transform="translate(37,43)"/>
<path d="M0 0 C0.33 0 0.66 0 1 0 C1 5.28 1 10.56 1 16 C-1.31 16 -3.62 16 -6 16 C-5.38125 15.401875 -4.7625 14.80375 -4.125 14.1875 C-1.15265454 9.72898181 -0.69782102 5.24283948 0 0 Z " fill="#E7E7E7" transform="translate(59,48)"/>
<path d="M0 0 C2.475 0.495 2.475 0.495 5 1 C7.125 6.625 7.125 6.625 6 10 C6 9.34 6 8.68 6 8 C5.01 8 4.02 8 3 8 C2.01 5.36 1.02 2.72 0 0 Z " fill="#762125" transform="translate(44,42)"/>
</svg>
