<svg xmlns="http://www.w3.org/2000/svg" viewBox="0 0 1440 320" preserveAspectRatio="none">
  <defs>
    <linearGradient id="waveGradient" x1="0%" y1="0%" x2="100%" y2="0%">
      <stop offset="0%" stop-color="#8C9D9A" /> {/* 柔和灰绿 */}
      <stop offset="100%" stop-color="#5F7379" /> {/* 沉静蓝灰 */}
    </linearGradient>
  </defs>
  <path fill="url(#waveGradient)" fill-opacity="0.6" d="M0,160L48,176C96,192,192,224,288,208C384,192,480,128,576,122.7C672,117,768,171,864,186.7C960,203,1056,181,1152,170.7C1248,160,1344,160,1392,160L1440,160L1440,320L1392,320C1344,320,1248,320,1152,320C1056,320,960,320,864,320C768,320,672,320,576,320C480,320,384,320,288,320C192,320,96,320,48,320L0,320Z"></path>
  <path fill="url(#waveGradient)" fill-opacity="0.3" d="M0,64L48,80C96,96,192,128,288,144C384,160,480,160,576,149.3C672,139,768,117,864,106.7C960,96,1056,96,1152,106.7C1248,117,1344,139,1392,149.3L1440,160L1440,320L1392,320C1344,320,1248,320,1152,320C1056,320,960,320,864,320C768,320,672,320,576,320C480,320,384,320,288,320C192,320,96,320,48,320L0,320Z"></path>
  <animateTransform
    attributeName="transform"
    attributeType="XML"
    type="translate"
    from="0 0"
    to="1440 0"
    dur="20s"
    repeatCount="indefinite"
    additive="sum"
  />
</svg>